<?xml version="1.0" encoding="utf-8"?>
<!-- Generator: Adobe Illustrator 24.0.1, SVG Export Plug-In . SVG Version: 6.00 Build 0)  -->
<svg version="1.1" id="Camada_1" xmlns="http://www.w3.org/2000/svg" xmlns:xlink="http://www.w3.org/1999/xlink" x="0px" y="0px"
	 viewBox="0 0 1000 1000" style="enable-background:new 0 0 1000 1000;" xml:space="preserve">
<style type="text/css">
	.st0{fill:#FFFFFF;}
</style>
<g>
	<g transform="translate(0.000000,511.000000) scale(0.100000,-0.100000)">
		<path class="st0" d="M3412.4,3596.8C3015,3489.2,2717,3139.4,2683.8,2744l-12.4-161.4l-207-140.7
			c-892-614.8-1554.3-1382.7-1949.7-2258.2C473.3,90.6,409.2-41.9,369.8-110.2C26.3-737.3,9.7-1517.6,326.4-2165.5
			c227.7-463.6,674.7-883.8,1148.7-1076.3c474-194.6,1030.8-219.4,1506.8-70.4C3797.4-3057.6,4408-2349.7,4526-1519.7l26.9,180.1
			H5002h447.1l14.5-134.5c33.1-320.8,204.9-745.1,422.2-1037c304.3-409.8,734.8-695.5,1260.5-840.4
			c134.5-37.2,221.5-43.5,513.3-45.5c306.3-2.1,376.7,4.1,536.1,47.6c240.1,62.1,471.9,161.4,670.6,283.6
			c192.5,120.1,542.3,461.6,664.4,649.9c453.3,701.7,492.6,1587.5,99.3,2303.7c-39.3,70.4-105.6,207-151.1,304.3
			C9071.2,1084.2,8427.4,1827.2,7535.4,2442l-207,140.7l-12.4,161.4c-35.2,414-362.2,778.2-782.4,865.2
			c-157.3,33.1-401.5,12.4-546.4-43.5c-256.7-97.3-480.2-327-575.4-589.9c-37.3-101.4-45.5-186.3-53.8-461.6
			c-14.5-418.1,6.2-397.4-358.1-397.4c-364.3,0-345.7-20.7-356,397.4c-10.4,362.2-37.3,478.1-157.3,668.5
			C4269.3,3528.5,3811.9,3704.4,3412.4,3596.8z M2743.9,415.5c879.7-219.4,1419.9-1150.8,1177.7-2030.4
			c-153.2-550.6-567.1-977-1126-1152.9c-207-66.2-587.8-80.7-809.3-31C1466.8-2685,1057-2358,831.4-1875.7
			c-95.2,200.8-136.6,360.1-151.1,592C607.9-164,1649,690.8,2743.9,415.5z M8084,415.5C8603.5,285.1,9038.1-106,9222.3-609
			c345.7-950-219.4-1972.5-1208.8-2189.8c-221.5-49.7-602.3-35.2-809.3,31c-527.8,167.7-925.2,548.5-1097,1055.6
			C5687.1-474.5,6811,736.4,8084,415.5z"/>
		<path class="st0" d="M2102.3,14c-349.8-91.1-668.5-349.8-825.8-670.6c-142.8-291.8-175.9-542.3-113.8-844.5
			c49.7-244.2,151.1-436.7,333.2-627.1c86.9-89,163.5-163.5,173.9-163.5c8.3,0-10.4,57.9-43.5,128.3
			c-180.1,382.9-159.4,850.7,55.9,1215C2021.6-377.1,2739.9-153.6,3336-437.2c186.3-89,180.1-62.1-31,138.7
			C3143.4-147.4,2899.1-15,2706.6,24.4C2555.5,55.4,2238.9,51.3,2102.3,14z"/>
		<path class="st0" d="M7463,14c-349.8-91.1-668.5-349.8-825.9-670.6c-142.8-291.8-175.9-542.3-113.8-844.5
			c49.7-244.2,151.1-436.7,333.3-627.1c86.9-89,163.5-163.5,173.8-163.5c8.3,0-10.4,57.9-43.5,128.3
			c-180.1,382.9-159.4,850.7,55.9,1215c339.4,571.3,1057.7,794.8,1653.7,511.2c186.3-89,180.1-62.1-31,138.7
			C8504.1-147.4,8259.9-15,8067.4,24.4C7916.3,55.4,7599.6,51.3,7463,14z"/>
	</g>
</g>
</svg>
