<?xml version="1.0" encoding="utf-8"?>
<!-- Generator: Adobe Illustrator 24.0.1, SVG Export Plug-In . SVG Version: 6.00 Build 0)  -->
<svg version="1.1" id="Camada_1" xmlns="http://www.w3.org/2000/svg" xmlns:xlink="http://www.w3.org/1999/xlink" x="0px" y="0px"
	 viewBox="0 0 200 200" style="enable-background:new 0 0 200 200;" xml:space="preserve">
<style type="text/css">
	.st0{fill:#0433FF;}
</style>
<path d="M155.62,21.13"/>
<path d="M182.94,49.06"/>
<path d="M149.71,20.08"/>
<path class="st0" d="M101.59,93.16c-2.87-1.71-6.21-2.71-9.8-2.71c-5.32,0-10.09,2.14-13.57,5.62c-3.48,3.49-5.62,8.26-5.62,13.57
	c0,5.32,2.14,10.08,5.62,13.57c3.49,3.48,8.26,5.62,13.57,5.62c5.32,0,10.09-2.14,13.58-5.62c3.48-3.49,5.62-8.26,5.62-13.57
	c0-3.69-1.05-7.11-2.85-10.03l-13.1,13.1c-1.79,1.79-4.7,1.79-6.5,0c-1.79-1.8-1.79-4.7,0-6.5L101.59,93.16z"/>
<path class="st0" d="M161.31,80.37c-1.36,1.36-3.42,1.73-5.17,0.92l-14.16-6.54c6.89,9.89,10.94,21.91,10.94,34.88
	c0,33.76-27.36,61.12-61.12,61.12c-33.76,0-61.12-27.36-61.12-61.12c0-33.76,27.36-61.12,61.12-61.12
	c12.91,0,24.87,4.01,34.73,10.84l-6.57-14.24c-0.81-1.75-0.44-3.81,0.92-5.17l7.22-7.22c-11.01-5.21-23.3-8.13-36.3-8.13
	c-23.5,0-44.73,9.51-60.13,24.91c-15.4,15.4-24.91,36.63-24.91,60.13c0,23.5,9.51,44.73,24.91,60.13
	c15.4,15.4,36.64,24.9,60.13,24.91c23.5,0,44.73-9.51,60.13-24.91c15.4-15.41,24.91-36.63,24.91-60.13
	c0-13.09-2.96-25.48-8.24-36.55L161.31,80.37z"/>
<path class="st0" d="M120.18,109.64c0,15.68-12.71,28.38-28.39,28.38c-15.68,0-28.38-12.71-28.39-28.38
	c0-15.67,12.71-28.38,28.39-28.38c6.13,0,11.79,1.97,16.43,5.27l16.8-16.79c-9.01-7.51-20.57-12.03-33.23-12.03
	c-14.36,0-27.31,5.81-36.72,15.21c-9.4,9.41-15.21,22.37-15.21,36.72c0,14.36,5.81,27.31,15.21,36.72
	c9.41,9.41,22.37,15.21,36.72,15.21c14.36,0,27.31-5.81,36.72-15.21c9.41-9.41,15.21-22.37,15.21-36.72
	c0-12.75-4.59-24.39-12.2-33.42L114.75,93C118.15,97.68,120.18,103.41,120.18,109.64z"/>
<polygon class="st0" points="143.92,50.83 174.42,20.33 167.81,6 129.64,44.17 136.25,58.5 "/>
<polygon class="st0" points="142.75,65 157.07,71.61 195.25,33.44 180.92,26.83 "/>
</svg>
