<?xml version="1.0" encoding="utf-8"?>
<!-- Generator: Adobe Illustrator 24.0.1, SVG Export Plug-In . SVG Version: 6.00 Build 0)  -->
<svg version="1.1" id="Camada_1" xmlns="http://www.w3.org/2000/svg" xmlns:xlink="http://www.w3.org/1999/xlink" x="0px" y="0px"
	 viewBox="0 0 200 200" style="enable-background:new 0 0 200 200;" xml:space="preserve">
<style type="text/css">
	.st0{fill:#0433FF;}
	.st1{fill:#FFFFFF;}
</style>
<path d="M157.62,20.13"/>
<path d="M184.94,48.06"/>
<path d="M151.71,19.08"/>
<polygon class="st0" points="146.22,108.66 136.53,91.12 123.9,91.12 126.88,108.66 "/>
<polygon class="st0" points="74.27,108.66 77.25,91.12 64.61,91.12 54.93,108.66 "/>
<path class="st1" d="M157.55,112.36c-0.02-0.14-0.02-0.27-0.05-0.41c-0.05-0.23-0.15-0.46-0.24-0.68c-0.05-0.11-0.07-0.24-0.13-0.35
	c-0.01-0.01-0.02-0.02-0.02-0.04c-0.01-0.01-0.01-0.03-0.02-0.04l-14.36-26.01c-0.74-1.35-2.17-2.19-3.71-2.19h-20.14H82.26H62.12
	c-1.54,0-2.96,0.84-3.71,2.19l-14.36,26.01c-0.01,0.01-0.01,0.03-0.02,0.04c-0.01,0.01-0.02,0.02-0.03,0.03
	c-0.06,0.11-0.08,0.24-0.13,0.36c-0.09,0.22-0.19,0.44-0.24,0.67c-0.03,0.13-0.03,0.27-0.05,0.41c-0.03,0.24-0.06,0.47-0.05,0.7
	c0.01,0.14,0.04,0.28,0.06,0.43c0.03,0.22,0.06,0.44,0.13,0.66c0.05,0.16,0.12,0.3,0.19,0.45c0.06,0.15,0.11,0.3,0.19,0.44
	c0.03,0.05,0.07,0.08,0.09,0.12c0.03,0.04,0.04,0.09,0.07,0.13l52.82,76.59c0,0,0,0,0,0.01c0.18,0.26,0.39,0.49,0.62,0.7
	c0.04,0.04,0.08,0.07,0.12,0.11c0.47,0.4,1.02,0.69,1.62,0.86c0.06,0.02,0.12,0.03,0.19,0.04c0.3,0.07,0.61,0.12,0.92,0.12
	c0.32,0,0.62-0.05,0.93-0.12c0.06-0.01,0.12-0.03,0.19-0.04c0.6-0.16,1.15-0.46,1.62-0.86c0.04-0.04,0.08-0.07,0.12-0.11
	c0.23-0.21,0.44-0.44,0.62-0.7c0,0,0.01,0,0.01-0.01l52.82-76.59c0.03-0.04,0.04-0.09,0.06-0.13c0.03-0.05,0.07-0.08,0.1-0.13
	c0.08-0.14,0.13-0.3,0.19-0.45c0.06-0.15,0.14-0.29,0.19-0.44c0.07-0.22,0.1-0.44,0.13-0.67c0.02-0.14,0.05-0.28,0.06-0.42
	C157.61,112.82,157.58,112.59,157.55,112.36z M136.53,91.12l9.69,17.54h-19.34l-2.98-17.54H136.53z M117.63,117.12l-17.06,57.48
	l-17.06-57.48H117.63z M118.29,108.66H82.85l2.98-17.54h29.48L118.29,108.66z M74.68,117.12l14.25,48.03l-33.12-48.03H74.68z
	 M126.46,117.12h18.87l-33.12,48.03L126.46,117.12z M77.25,91.12l-2.98,17.54H54.93l9.69-17.54H77.25z"/>
<polygon class="st0" points="126.46,117.12 112.21,165.15 145.33,117.12 "/>
<polygon class="st0" points="74.68,117.12 55.82,117.12 88.94,165.15 "/>
<polygon class="st0" points="117.63,117.12 83.51,117.12 100.57,174.6 "/>
<polygon class="st0" points="82.85,108.66 118.29,108.66 115.31,91.12 85.83,91.12 "/>
<path class="st0" d="M100.57,7c-2.34,0-4.23,1.89-4.23,4.23l0,26.33c0,2.34,1.9,4.23,4.23,4.23c2.34,0,4.23-1.9,4.23-4.23l0-26.33
	C104.81,8.89,102.91,7,100.57,7z"/>
<path class="st0" d="M196.78,86.05c-0.33-1.67-1.65-2.99-3.32-3.32c-0.27-0.05-0.55-0.08-0.83-0.08h-26.33
	c-2.34,0-4.23,1.9-4.23,4.23c0,2.34,1.9,4.23,4.23,4.23h26.33c0.28,0,0.56-0.03,0.83-0.08c1.67-0.33,2.99-1.65,3.32-3.32
	c0.05-0.27,0.08-0.55,0.08-0.83C196.87,86.6,196.84,86.33,196.78,86.05z"/>
<path class="st0" d="M34.83,82.65H8.51h0c-2.34,0-4.23,1.9-4.23,4.23c0,2.34,1.9,4.23,4.23,4.23h0h26.32c2.34,0,4.23-1.9,4.23-4.23
	C39.06,84.55,37.17,82.65,34.83,82.65z"/>
<path class="st0" d="M147.98,55.03c5.36-5.35,10.71-10.71,16.06-16.06c1.65-1.65,1.65-4.34,0-5.99c-1.65-1.65-4.33-1.65-5.99,0
	c-5.35,5.36-10.7,10.71-16.06,16.06c-1.65,1.65-1.65,4.33,0,5.98C143.65,56.68,146.33,56.68,147.98,55.03z"/>
<path class="st0" d="M37.1,38.97c5.35,5.35,10.7,10.7,16.05,16.05c1.65,1.65,4.34,1.65,5.99,0c1.65-1.65,1.65-4.33,0-5.99l0,0
	c-5.35-5.35-10.71-10.7-16.06-16.06c-1.65-1.65-4.34-1.65-5.99,0C35.44,34.63,35.44,37.31,37.1,38.97z"/>
</svg>
