<?xml version="1.0" encoding="utf-8"?>
<!-- Generator: Adobe Illustrator 24.0.1, SVG Export Plug-In . SVG Version: 6.00 Build 0)  -->
<svg version="1.1" id="Camada_1" xmlns="http://www.w3.org/2000/svg" xmlns:xlink="http://www.w3.org/1999/xlink" x="0px" y="0px"
	 viewBox="0 0 200 200" style="enable-background:new 0 0 200 200;" xml:space="preserve">
<style type="text/css">
	.st0{fill:none;}
	.st1{fill:#0433FF;}
</style>
<path class="st0" d="M121.12,82.6c-5.32-5.32-12.71-8.63-20.83-8.62c-5.6,0-10.86,1.57-15.32,4.29c-1.01,0.62-1.74,1.63-2,2.8
	c-0.26,1.16-0.03,2.38,0.63,3.38c1.06,1.6,1.67,3.48,1.67,5.54c0,2.78-1.12,5.26-2.94,7.1c-1.83,1.82-4.31,2.94-7.09,2.95
	c-1.19,0-2.33,0.49-3.16,1.35c-0.82,0.86-1.26,2.02-1.22,3.21c0.3,7.86,3.7,14.95,8.99,20.04c5.28,5.1,12.52,8.25,20.44,8.25
	c8.12,0,15.51-3.3,20.83-8.63c5.32-5.32,8.63-12.71,8.63-20.83C129.75,95.31,126.44,87.91,121.12,82.6z M114.91,118.05
	c-3.75,3.75-8.9,6.06-14.62,6.06c-5.59,0-10.62-2.2-14.35-5.79c-2.83-2.73-4.87-6.24-5.79-10.19c3.22-0.87,6.11-2.56,8.39-4.84
	c3.39-3.39,5.51-8.12,5.5-13.3c0-2.07-0.35-4.06-0.97-5.93c2.24-0.84,4.67-1.3,7.21-1.3c5.73,0,10.87,2.31,14.63,6.05
	c3.75,3.76,6.05,8.89,6.06,14.62C120.97,109.15,118.66,114.29,114.91,118.05z"/>
<path class="st1" d="M128.57,75.15c-7.25-7.25-17.22-11.71-28.28-11.72c-11.06,0-21.03,4.47-28.28,11.72
	c-7.25,7.25-11.71,17.23-11.72,28.28c0,11.06,4.47,21.03,11.72,28.28c7.25,7.24,17.22,11.71,28.28,11.71
	c11.06,0,21.03-4.47,28.28-11.71c7.24-7.25,11.71-17.22,11.71-28.28C140.28,92.37,135.81,82.4,128.57,75.15z M121.12,124.25
	c-5.32,5.33-12.71,8.63-20.83,8.63c-7.92,0-15.16-3.15-20.44-8.25c-5.29-5.09-8.68-12.19-8.99-20.04c-0.05-1.19,0.39-2.35,1.22-3.21
	c0.83-0.86,1.97-1.35,3.16-1.35c2.78-0.01,5.27-1.12,7.09-2.95c1.82-1.83,2.94-4.32,2.94-7.1c0-2.06-0.61-3.94-1.67-5.54
	c-0.66-0.99-0.89-2.22-0.63-3.38c0.26-1.16,0.98-2.18,2-2.8c4.46-2.72,9.72-4.3,15.32-4.29c8.12,0,15.51,3.3,20.83,8.62
	c5.32,5.31,8.63,12.7,8.63,20.82C129.75,111.54,126.44,118.94,121.12,124.25z"/>
<path class="st1" d="M100.29,82.75c-2.55,0-4.97,0.46-7.21,1.3c0.62,1.87,0.97,3.87,0.97,5.93c0,5.18-2.11,9.91-5.5,13.3
	c-2.28,2.28-5.17,3.97-8.39,4.84c0.92,3.95,2.96,7.46,5.79,10.19c3.73,3.59,8.76,5.78,14.35,5.79c5.72,0,10.87-2.31,14.62-6.06
	c3.75-3.76,6.06-8.9,6.06-14.62c0-5.72-2.31-10.86-6.06-14.62C111.16,85.06,106.02,82.75,100.29,82.75z"/>
<path class="st1" d="M1.64,103.43c1.18,0.98,2.6,2.15,4.31,3.48c5.2,4.06,12.76,9.49,22.08,14.92
	c10.75,6.26,23.83,12.47,38.33,16.62c-9.15-8.86-14.84-21.27-14.84-35.01c0-13.75,5.7-26.16,14.86-35.03
	C52.26,72.44,39.48,78.43,28.9,84.52C16.11,91.87,6.54,99.33,1.64,103.43"/>
<path class="st1" d="M172.54,85.03c-10.75-6.26-23.83-12.47-38.33-16.62c9.14,8.87,14.84,21.28,14.84,35.02
	c0,13.75-5.7,26.16-14.85,35.02c14.12-4.03,26.88-10.03,37.46-16.12c12.79-7.36,22.36-14.81,27.26-18.91
	c-1.18-0.99-2.6-2.15-4.31-3.48C189.42,95.89,181.87,90.45,172.54,85.03z"/>
</svg>
